<svg width="500" height="46" viewBox="0 0 412 46" fill="none" xmlns="http://www.w3.org/2000/svg">
<mask id="path-1-outside-1_13_3" maskUnits="userSpaceOnUse" x="-2" y="-1" width="415" height="49" fill="black">
<rect fill="white" x="-2" y="-1" width="415" height="49"/>
<path d="M0.0160003 45V1.48H14.352C18.9173 1.48 22.3307 2.632 24.592 4.936C26.896 7.24 28.048 10.312 28.048 14.152V17.544C28.048 21.384 26.896 24.4773 24.592 26.824C22.3307 29.128 18.9173 30.28 14.352 30.28H7.696V45H0.0160003ZM14.352 8.84H7.696V22.92H14.352C16.2293 22.92 17.6587 22.4507 18.64 21.512C19.664 20.5733 20.176 19.2507 20.176 17.544V14.152C20.176 12.488 19.664 11.1867 18.64 10.248C17.6587 9.30933 16.2293 8.84 14.352 8.84ZM57.059 45L54.371 36.488H39.459L36.771 45H29.155L43.683 1.48H50.467L65.059 45H57.059ZM43.619 23.176L41.635 29.448H52.131L50.147 23.176L46.947 12.168L43.619 23.176ZM76.9665 27.784C76.9665 30.8987 77.6492 33.4587 79.0145 35.464C80.3798 37.4267 82.6198 38.408 85.7345 38.408C87.0145 38.408 88.3372 38.2373 89.7025 37.896C91.1105 37.5547 92.8385 36.9787 94.8865 36.168L97.2545 42.824C94.9505 43.848 92.8172 44.5733 90.8545 45C88.9345 45.4267 87.0785 45.64 85.2865 45.64C81.7025 45.64 78.6945 44.872 76.2625 43.336C73.8732 41.8 72.0812 39.688 70.8865 37C69.6918 34.312 69.0945 31.24 69.0945 27.784V18.632C69.0945 15.176 69.6918 12.104 70.8865 9.416C72.0812 6.728 73.8732 4.63733 76.2625 3.144C78.6945 1.608 81.7025 0.839996 85.2865 0.839996C87.0358 0.839996 88.8492 1.05333 90.7265 1.48C92.6038 1.864 94.6518 2.54667 96.8705 3.528L94.5025 10.312C92.5398 9.50133 90.8972 8.92533 89.5745 8.584C88.2518 8.24267 86.9718 8.072 85.7345 8.072C82.6198 8.072 80.3798 9.05333 79.0145 11.016C77.6492 12.9787 76.9665 15.5173 76.9665 18.632V27.784ZM128.37 45L117.49 25.992C116.765 26.8027 116.018 27.6133 115.25 28.424C114.525 29.2347 113.757 30.0667 112.946 30.92V45H105.266V1.48H112.946V22.152C116.189 18.44 118.962 14.92 121.266 11.592C123.57 8.22133 125.554 4.85067 127.218 1.48H135.602C133.767 5.14933 131.805 8.62666 129.714 11.912C127.666 15.1547 125.49 18.1627 123.186 20.936L137.65 45H128.37ZM167.872 45L165.184 36.488H150.272L147.584 45H139.968L154.496 1.48H161.28L175.872 45H167.872ZM154.432 23.176L152.448 29.448H162.944L160.96 23.176L157.76 12.168L154.432 23.176ZM210.691 42.184C209.624 42.824 207.854 43.5707 205.379 44.424C202.947 45.2347 200.088 45.64 196.803 45.64C193.091 45.64 189.976 44.872 187.459 43.336C184.984 41.8 183.107 39.688 181.827 37C180.547 34.312 179.907 31.24 179.907 27.784V18.632C179.907 15.0907 180.547 11.9973 181.827 9.352C183.107 6.664 185.006 4.57333 187.523 3.08C190.083 1.58666 193.283 0.839996 197.123 0.839996C199 0.839996 200.942 1.05333 202.947 1.48C204.952 1.864 207.15 2.58933 209.539 3.656L207.171 10.376C205.08 9.56533 203.267 8.98933 201.731 8.648C200.238 8.264 198.744 8.072 197.251 8.072C193.923 8.072 191.512 9.032 190.019 10.952C188.526 12.8293 187.779 15.3893 187.779 18.632V27.784C187.779 30.856 188.526 33.3733 190.019 35.336C191.555 37.2987 193.944 38.28 197.187 38.28C198.168 38.28 199.235 38.1947 200.387 38.024C201.539 37.8533 202.648 37.6187 203.715 37.32V27.784H196.675V21.064H210.691V42.184ZM245.67 37.64V45H220.454V1.48H245.03V8.84H228.134V19.272H243.11V26.632H228.134V37.64H245.67ZM292.667 37.64V45H267.579V1.48H275.259V37.64H292.667ZM307.696 45H300.016V1.48H307.696V45ZM329.176 38.536C334.125 38.536 336.6 36.7013 336.6 33.032C336.6 31.5387 336.216 30.3653 335.448 29.512C334.722 28.6587 333.357 27.912 331.352 27.272L326.104 25.544C319.832 23.496 316.696 19.3787 316.696 13.192C316.696 9.608 317.805 6.664 320.024 4.36C322.285 2.01333 325.805 0.839996 330.583 0.839996C332.589 0.839996 334.573 1.07466 336.536 1.544C338.498 1.97066 340.589 2.67466 342.808 3.656L340.44 10.248C338.392 9.43733 336.642 8.86133 335.192 8.52C333.784 8.136 332.333 7.944 330.84 7.944C328.877 7.944 327.32 8.30666 326.168 9.032C325.058 9.71467 324.504 10.9733 324.504 12.808C324.504 14.1733 324.888 15.304 325.656 16.2C326.466 17.0533 327.789 17.7787 329.624 18.376L334.872 20.104C338.029 21.1707 340.397 22.728 341.976 24.776C343.597 26.7813 344.408 29.448 344.408 32.776C344.408 36.616 343.192 39.7307 340.76 42.12C338.328 44.4667 334.509 45.64 329.304 45.64C327.256 45.64 325.122 45.4053 322.904 44.936C320.728 44.424 318.338 43.5707 315.736 42.376L318.104 35.784C320.493 36.808 322.52 37.5333 324.184 37.96C325.89 38.344 327.554 38.536 329.176 38.536ZM347.645 8.84V1.48H379.645V8.84H367.485V45H359.805V8.84H347.645ZM395.988 38.536C400.937 38.536 403.412 36.7013 403.412 33.032C403.412 31.5387 403.028 30.3653 402.26 29.512C401.535 28.6587 400.169 27.912 398.164 27.272L392.916 25.544C386.644 23.496 383.508 19.3787 383.508 13.192C383.508 9.608 384.617 6.664 386.836 4.36C389.097 2.01333 392.617 0.839996 397.396 0.839996C399.401 0.839996 401.385 1.07466 403.348 1.544C405.311 1.97066 407.401 2.67466 409.62 3.656L407.252 10.248C405.204 9.43733 403.455 8.86133 402.004 8.52C400.596 8.136 399.145 7.944 397.652 7.944C395.689 7.944 394.132 8.30666 392.98 9.032C391.871 9.71467 391.316 10.9733 391.316 12.808C391.316 14.1733 391.7 15.304 392.468 16.2C393.279 17.0533 394.601 17.7787 396.436 18.376L401.684 20.104C404.841 21.1707 407.209 22.728 408.788 24.776C410.409 26.7813 411.22 29.448 411.22 32.776C411.22 36.616 410.004 39.7307 407.572 42.12C405.14 44.4667 401.321 45.64 396.116 45.64C394.068 45.64 391.935 45.4053 389.716 44.936C387.54 44.424 385.151 43.5707 382.548 42.376L384.916 35.784C387.305 36.808 389.332 37.5333 390.996 37.96C392.703 38.344 394.367 38.536 395.988 38.536Z"/>
</mask>
<g filter="url(#filter0_iii_13_3)">
<path d="M0.0160003 45V1.48H14.352C18.9173 1.48 22.3307 2.632 24.592 4.936C26.896 7.24 28.048 10.312 28.048 14.152V17.544C28.048 21.384 26.896 24.4773 24.592 26.824C22.3307 29.128 18.9173 30.28 14.352 30.28H7.696V45H0.0160003ZM14.352 8.84H7.696V22.92H14.352C16.2293 22.92 17.6587 22.4507 18.64 21.512C19.664 20.5733 20.176 19.2507 20.176 17.544V14.152C20.176 12.488 19.664 11.1867 18.64 10.248C17.6587 9.30933 16.2293 8.84 14.352 8.84ZM57.059 45L54.371 36.488H39.459L36.771 45H29.155L43.683 1.48H50.467L65.059 45H57.059ZM43.619 23.176L41.635 29.448H52.131L50.147 23.176L46.947 12.168L43.619 23.176ZM76.9665 27.784C76.9665 30.8987 77.6492 33.4587 79.0145 35.464C80.3798 37.4267 82.6198 38.408 85.7345 38.408C87.0145 38.408 88.3372 38.2373 89.7025 37.896C91.1105 37.5547 92.8385 36.9787 94.8865 36.168L97.2545 42.824C94.9505 43.848 92.8172 44.5733 90.8545 45C88.9345 45.4267 87.0785 45.64 85.2865 45.64C81.7025 45.64 78.6945 44.872 76.2625 43.336C73.8732 41.8 72.0812 39.688 70.8865 37C69.6918 34.312 69.0945 31.24 69.0945 27.784V18.632C69.0945 15.176 69.6918 12.104 70.8865 9.416C72.0812 6.728 73.8732 4.63733 76.2625 3.144C78.6945 1.608 81.7025 0.839996 85.2865 0.839996C87.0358 0.839996 88.8492 1.05333 90.7265 1.48C92.6038 1.864 94.6518 2.54667 96.8705 3.528L94.5025 10.312C92.5398 9.50133 90.8972 8.92533 89.5745 8.584C88.2518 8.24267 86.9718 8.072 85.7345 8.072C82.6198 8.072 80.3798 9.05333 79.0145 11.016C77.6492 12.9787 76.9665 15.5173 76.9665 18.632V27.784ZM128.37 45L117.49 25.992C116.765 26.8027 116.018 27.6133 115.25 28.424C114.525 29.2347 113.757 30.0667 112.946 30.92V45H105.266V1.48H112.946V22.152C116.189 18.44 118.962 14.92 121.266 11.592C123.57 8.22133 125.554 4.85067 127.218 1.48H135.602C133.767 5.14933 131.805 8.62666 129.714 11.912C127.666 15.1547 125.49 18.1627 123.186 20.936L137.65 45H128.37ZM167.872 45L165.184 36.488H150.272L147.584 45H139.968L154.496 1.48H161.28L175.872 45H167.872ZM154.432 23.176L152.448 29.448H162.944L160.96 23.176L157.76 12.168L154.432 23.176ZM210.691 42.184C209.624 42.824 207.854 43.5707 205.379 44.424C202.947 45.2347 200.088 45.64 196.803 45.64C193.091 45.64 189.976 44.872 187.459 43.336C184.984 41.8 183.107 39.688 181.827 37C180.547 34.312 179.907 31.24 179.907 27.784V18.632C179.907 15.0907 180.547 11.9973 181.827 9.352C183.107 6.664 185.006 4.57333 187.523 3.08C190.083 1.58666 193.283 0.839996 197.123 0.839996C199 0.839996 200.942 1.05333 202.947 1.48C204.952 1.864 207.15 2.58933 209.539 3.656L207.171 10.376C205.08 9.56533 203.267 8.98933 201.731 8.648C200.238 8.264 198.744 8.072 197.251 8.072C193.923 8.072 191.512 9.032 190.019 10.952C188.526 12.8293 187.779 15.3893 187.779 18.632V27.784C187.779 30.856 188.526 33.3733 190.019 35.336C191.555 37.2987 193.944 38.28 197.187 38.28C198.168 38.28 199.235 38.1947 200.387 38.024C201.539 37.8533 202.648 37.6187 203.715 37.32V27.784H196.675V21.064H210.691V42.184ZM245.67 37.64V45H220.454V1.48H245.03V8.84H228.134V19.272H243.11V26.632H228.134V37.64H245.67ZM292.667 37.64V45H267.579V1.48H275.259V37.64H292.667ZM307.696 45H300.016V1.48H307.696V45ZM329.176 38.536C334.125 38.536 336.6 36.7013 336.6 33.032C336.6 31.5387 336.216 30.3653 335.448 29.512C334.722 28.6587 333.357 27.912 331.352 27.272L326.104 25.544C319.832 23.496 316.696 19.3787 316.696 13.192C316.696 9.608 317.805 6.664 320.024 4.36C322.285 2.01333 325.805 0.839996 330.583 0.839996C332.589 0.839996 334.573 1.07466 336.536 1.544C338.498 1.97066 340.589 2.67466 342.808 3.656L340.44 10.248C338.392 9.43733 336.642 8.86133 335.192 8.52C333.784 8.136 332.333 7.944 330.84 7.944C328.877 7.944 327.32 8.30666 326.168 9.032C325.058 9.71467 324.504 10.9733 324.504 12.808C324.504 14.1733 324.888 15.304 325.656 16.2C326.466 17.0533 327.789 17.7787 329.624 18.376L334.872 20.104C338.029 21.1707 340.397 22.728 341.976 24.776C343.597 26.7813 344.408 29.448 344.408 32.776C344.408 36.616 343.192 39.7307 340.76 42.12C338.328 44.4667 334.509 45.64 329.304 45.64C327.256 45.64 325.122 45.4053 322.904 44.936C320.728 44.424 318.338 43.5707 315.736 42.376L318.104 35.784C320.493 36.808 322.52 37.5333 324.184 37.96C325.89 38.344 327.554 38.536 329.176 38.536ZM347.645 8.84V1.48H379.645V8.84H367.485V45H359.805V8.84H347.645ZM395.988 38.536C400.937 38.536 403.412 36.7013 403.412 33.032C403.412 31.5387 403.028 30.3653 402.26 29.512C401.535 28.6587 400.169 27.912 398.164 27.272L392.916 25.544C386.644 23.496 383.508 19.3787 383.508 13.192C383.508 9.608 384.617 6.664 386.836 4.36C389.097 2.01333 392.617 0.839996 397.396 0.839996C399.401 0.839996 401.385 1.07466 403.348 1.544C405.311 1.97066 407.401 2.67466 409.62 3.656L407.252 10.248C405.204 9.43733 403.455 8.86133 402.004 8.52C400.596 8.136 399.145 7.944 397.652 7.944C395.689 7.944 394.132 8.30666 392.98 9.032C391.871 9.71467 391.316 10.9733 391.316 12.808C391.316 14.1733 391.7 15.304 392.468 16.2C393.279 17.0533 394.601 17.7787 396.436 18.376L401.684 20.104C404.841 21.1707 407.209 22.728 408.788 24.776C410.409 26.7813 411.22 29.448 411.22 32.776C411.22 36.616 410.004 39.7307 407.572 42.12C405.14 44.4667 401.321 45.64 396.116 45.64C394.068 45.64 391.935 45.4053 389.716 44.936C387.54 44.424 385.151 43.5707 382.548 42.376L384.916 35.784C387.305 36.808 389.332 37.5333 390.996 37.96C392.703 38.344 394.367 38.536 395.988 38.536Z" fill="#F2F2F2"/>
</g>
<path d="M0.0160003 45H-1.484V46.5H0.0160003V45ZM0.0160003 1.48V-0.0200005H-1.484V1.48H0.0160003ZM24.592 4.936L23.5214 5.98674L23.5313 5.99666L24.592 4.936ZM24.592 26.824L23.5217 25.7731L23.5215 25.7733L24.592 26.824ZM7.696 30.28V28.78H6.196V30.28H7.696ZM7.696 45V46.5H9.196V45H7.696ZM7.696 8.84V7.34H6.196V8.84H7.696ZM7.696 22.92H6.196V24.42H7.696V22.92ZM18.64 21.512L17.6264 20.4063L17.6147 20.417L17.6032 20.428L18.64 21.512ZM18.64 10.248L17.6032 11.332L17.6147 11.343L17.6264 11.3537L18.64 10.248ZM1.516 45V1.48H-1.484V45H1.516ZM0.0160003 2.98H14.352V-0.0200005H0.0160003V2.98ZM14.352 2.98C18.6838 2.98 21.642 4.07173 23.5215 5.9867L25.6625 3.8853C23.0194 1.19226 19.1509 -0.0200005 14.352 -0.0200005V2.98ZM23.5313 5.99666C25.5042 7.96955 26.548 10.6334 26.548 14.152H29.548C29.548 9.99062 28.2878 6.51044 25.6527 3.87534L23.5313 5.99666ZM26.548 14.152V17.544H29.548V14.152H26.548ZM26.548 17.544C26.548 21.0619 25.5043 23.7538 23.5217 25.7731L25.6623 27.8749C28.2877 25.2009 29.548 21.7061 29.548 17.544H26.548ZM23.5215 25.7733C21.642 27.6883 18.6838 28.78 14.352 28.78V31.78C19.1509 31.78 23.0194 30.5677 25.6625 27.8747L23.5215 25.7733ZM14.352 28.78H7.696V31.78H14.352V28.78ZM6.196 30.28V45H9.196V30.28H6.196ZM7.696 43.5H0.0160003V46.5H7.696V43.5ZM14.352 7.34H7.696V10.34H14.352V7.34ZM6.196 8.84V22.92H9.196V8.84H6.196ZM7.696 24.42H14.352V21.42H7.696V24.42ZM14.352 24.42C16.466 24.42 18.3243 23.8897 19.6768 22.596L17.6032 20.428C16.9931 21.0116 15.9927 21.42 14.352 21.42V24.42ZM19.6536 22.6177C21.0564 21.3318 21.676 19.5676 21.676 17.544H18.676C18.676 18.9337 18.2716 19.8149 17.6264 20.4063L19.6536 22.6177ZM21.676 17.544V14.152H18.676V17.544H21.676ZM21.676 14.152C21.676 12.1579 21.0484 10.4208 19.6536 9.14227L17.6264 11.3537C18.2796 11.9525 18.676 12.8181 18.676 14.152H21.676ZM19.6768 9.16403C18.3243 7.87029 16.466 7.34 14.352 7.34V10.34C15.9927 10.34 16.9931 10.7484 17.6032 11.332L19.6768 9.16403ZM57.059 45L55.6286 45.4517L55.9597 46.5H57.059V45ZM54.371 36.488L55.8014 36.0363L55.4703 34.988H54.371V36.488ZM39.459 36.488V34.988H38.3597L38.0286 36.0363L39.459 36.488ZM36.771 45V46.5H37.8703L38.2014 45.4517L36.771 45ZM29.155 45L27.7322 44.525L27.0729 46.5H29.155V45ZM43.683 1.48V-0.0200005H42.6024L42.2602 1.00503L43.683 1.48ZM50.467 1.48L51.8892 1.00315L51.5461 -0.0200005H50.467V1.48ZM65.059 45V46.5H67.144L66.4812 44.5231L65.059 45ZM43.619 23.176L45.0492 23.6284L45.052 23.6193L45.0548 23.6101L43.619 23.176ZM41.635 29.448L40.2048 28.9956L39.5873 30.948H41.635V29.448ZM52.131 29.448V30.948H54.1787L53.5612 28.9956L52.131 29.448ZM50.147 23.176L48.7066 23.5947L48.7115 23.6116L48.7168 23.6284L50.147 23.176ZM46.947 12.168L48.3874 11.7493L46.9752 6.8914L45.5112 11.7339L46.947 12.168ZM58.4894 44.5483L55.8014 36.0363L52.9406 36.9397L55.6286 45.4517L58.4894 44.5483ZM54.371 34.988H39.459V37.988H54.371V34.988ZM38.0286 36.0363L35.3406 44.5483L38.2014 45.4517L40.8894 36.9397L38.0286 36.0363ZM36.771 43.5H29.155V46.5H36.771V43.5ZM30.5778 45.475L45.1058 1.95497L42.2602 1.00503L27.7322 44.525L30.5778 45.475ZM43.683 2.98H50.467V-0.0200005H43.683V2.98ZM49.0448 1.95685L63.6368 45.4769L66.4812 44.5231L51.8892 1.00315L49.0448 1.95685ZM65.059 43.5H57.059V46.5H65.059V43.5ZM42.1888 22.7236L40.2048 28.9956L43.0652 29.9004L45.0492 23.6284L42.1888 22.7236ZM41.635 30.948H52.131V27.948H41.635V30.948ZM53.5612 28.9956L51.5772 22.7236L48.7168 23.6284L50.7008 29.9004L53.5612 28.9956ZM51.5874 22.7573L48.3874 11.7493L45.5066 12.5867L48.7066 23.5947L51.5874 22.7573ZM45.5112 11.7339L42.1832 22.7419L45.0548 23.6101L48.3828 12.6021L45.5112 11.7339ZM79.0145 35.464L77.7746 36.3082L77.7788 36.3144L77.7831 36.3206L79.0145 35.464ZM89.7025 37.896L89.3491 36.4382L89.3387 36.4408L89.7025 37.896ZM94.8865 36.168L96.2997 35.6652L95.779 34.2015L94.3344 34.7733L94.8865 36.168ZM97.2545 42.824L97.8637 44.1947L99.1335 43.6304L98.6677 42.3212L97.2545 42.824ZM90.8545 45L90.5359 43.5342L90.5291 43.5357L90.8545 45ZM76.2625 43.336L75.4513 44.5978L75.4615 44.6042L76.2625 43.336ZM70.8865 37L72.2572 36.3908L72.2572 36.3908L70.8865 37ZM70.8865 9.416L69.5158 8.80679L69.5158 8.80679L70.8865 9.416ZM76.2625 3.144L77.0575 4.41601L77.0635 4.41223L76.2625 3.144ZM90.7265 1.48L90.3941 2.9427L90.41 2.94631L90.4259 2.94957L90.7265 1.48ZM96.8705 3.528L98.2867 4.02234L98.7427 2.71592L97.4773 2.1562L96.8705 3.528ZM94.5025 10.312L93.9299 11.6984L95.396 12.3039L95.9187 10.8063L94.5025 10.312ZM89.5745 8.584L89.1997 10.0364L89.1997 10.0364L89.5745 8.584ZM79.0145 11.016L80.2459 11.8726L80.2459 11.8726L79.0145 11.016ZM75.4665 27.784C75.4665 31.1147 76.1975 33.9919 77.7746 36.3082L80.2544 34.6198C79.1008 32.9255 78.4665 30.6826 78.4665 27.784H75.4665ZM77.7831 36.3206C79.5114 38.805 82.2936 39.908 85.7345 39.908V36.908C82.946 36.908 81.2483 36.0484 80.2459 34.6074L77.7831 36.3206ZM85.7345 39.908C87.1486 39.908 88.5937 39.7194 90.0663 39.3512L89.3387 36.4408C88.0807 36.7553 86.8804 36.908 85.7345 36.908V39.908ZM90.0559 39.3538C91.5566 38.99 93.3555 38.3873 95.4386 37.5627L94.3344 34.7733C92.3215 35.5701 90.6644 36.1194 89.3491 36.4382L90.0559 39.3538ZM93.4733 36.6708L95.8413 43.3268L98.6677 42.3212L96.2997 35.6652L93.4733 36.6708ZM96.6453 41.4533C94.4121 42.4458 92.3772 43.1339 90.5359 43.5342L91.1731 46.4658C93.2571 46.0127 95.4889 45.2502 97.8637 44.1947L96.6453 41.4533ZM90.5291 43.5357C88.7057 43.9409 86.959 44.14 85.2865 44.14V47.14C87.198 47.14 89.1633 46.9124 91.1799 46.4643L90.5291 43.5357ZM85.2865 44.14C81.9165 44.14 79.2031 43.4191 77.0635 42.0678L75.4615 44.6042C78.1859 46.3249 81.4885 47.14 85.2865 47.14V44.14ZM77.0736 42.0742C74.9396 40.7024 73.3375 38.8214 72.2572 36.3908L69.5158 37.6092C70.8248 40.5546 72.8067 42.8976 75.4514 44.5978L77.0736 42.0742ZM72.2572 36.3908C71.1614 33.9252 70.5945 31.0664 70.5945 27.784H67.5945C67.5945 31.4136 68.2223 34.6988 69.5158 37.6092L72.2572 36.3908ZM70.5945 27.784V18.632H67.5945V27.784H70.5945ZM70.5945 18.632C70.5945 15.3496 71.1614 12.4908 72.2572 10.0252L69.5158 8.80679C68.2223 11.7172 67.5945 15.0024 67.5945 18.632H70.5945ZM72.2572 10.0252C73.336 7.59789 74.9334 5.74354 77.0575 4.41599L75.4675 1.872C72.8129 3.53112 70.8263 5.85811 69.5158 8.80679L72.2572 10.0252ZM77.0635 4.41223C79.2031 3.06092 81.9165 2.34 85.2865 2.34V-0.660004C81.4885 -0.660004 78.1859 0.15507 75.4615 1.87576L77.0635 4.41223ZM85.2865 2.34C86.9134 2.34 88.615 2.53837 90.3941 2.9427L91.0589 0.0173006C89.0833 -0.431705 87.1582 -0.660004 85.2865 -0.660004V2.34ZM90.4259 2.94957C92.1745 3.30724 94.1187 3.95103 96.2637 4.8998L97.4773 2.1562C95.185 1.1423 93.0332 0.420758 91.0271 0.0104272L90.4259 2.94957ZM95.4543 3.03366L93.0863 9.81766L95.9187 10.8063L98.2867 4.02234L95.4543 3.03366ZM95.0751 8.9256C93.0792 8.1012 91.3656 7.49706 89.9493 7.13158L89.1997 10.0364C90.4288 10.3536 92.0005 10.9015 93.9299 11.6984L95.0751 8.9256ZM89.9493 7.13158C88.5168 6.76189 87.1106 6.572 85.7345 6.572V9.572C86.8331 9.572 87.9869 9.72344 89.1997 10.0364L89.9493 7.13158ZM85.7345 6.572C82.2936 6.572 79.5114 7.67504 77.7831 10.1594L80.2459 11.8726C81.2483 10.4316 82.946 9.572 85.7345 9.572V6.572ZM77.7831 10.1594C76.1968 12.4397 75.4665 15.3031 75.4665 18.632H78.4665C78.4665 15.7316 79.1015 13.5176 80.2459 11.8726L77.7831 10.1594ZM75.4665 18.632V27.784H78.4665V18.632H75.4665ZM128.37 45L127.068 45.7452L127.5 46.5H128.37V45ZM117.49 25.992L118.792 25.2468L117.759 23.442L116.372 24.9918L117.49 25.992ZM115.25 28.424L114.161 27.3924L114.146 27.4079L114.132 27.4238L115.25 28.424ZM112.946 30.92L111.859 29.8869L111.446 30.3211V30.92H112.946ZM112.946 45V46.5H114.446V45H112.946ZM105.266 45H103.766V46.5H105.266V45ZM105.266 1.48V-0.0200005H103.766V1.48H105.266ZM112.946 1.48H114.446V-0.0200005H112.946V1.48ZM112.946 22.152H111.446V26.1491L114.076 23.1388L112.946 22.152ZM121.266 11.592L122.499 12.4458L122.504 12.4385L121.266 11.592ZM127.218 1.48V-0.0200005H126.286L125.873 0.815998L127.218 1.48ZM135.602 1.48L136.944 2.15082L138.029 -0.0200005H135.602V1.48ZM129.714 11.912L128.449 11.1067L128.446 11.111L129.714 11.912ZM123.186 20.936L122.032 19.9775L121.352 20.7963L121.9 21.7087L123.186 20.936ZM137.65 45V46.5H140.302L138.936 44.2273L137.65 45ZM129.672 44.2548L118.792 25.2468L116.188 26.7372L127.068 45.7452L129.672 44.2548ZM116.372 24.9918C115.657 25.7916 114.92 26.5918 114.161 27.3924L116.339 29.4556C117.116 28.6349 117.873 27.8137 118.608 26.9922L116.372 24.9918ZM114.132 27.4238C113.418 28.2225 112.66 29.0435 111.859 29.8869L114.034 31.9531C114.854 31.0898 115.632 30.2468 116.368 29.4242L114.132 27.4238ZM111.446 30.92V45H114.446V30.92H111.446ZM112.946 43.5H105.266V46.5H112.946V43.5ZM106.766 45V1.48H103.766V45H106.766ZM105.266 2.98H112.946V-0.0200005H105.266V2.98ZM111.446 1.48V22.152H114.446V1.48H111.446ZM114.076 23.1388C117.348 19.3932 120.157 15.8287 122.499 12.4458L120.033 10.7382C117.767 14.0113 115.03 17.4868 111.816 21.1652L114.076 23.1388ZM122.504 12.4385C124.845 9.01449 126.865 5.58306 128.563 2.144L125.873 0.815998C124.243 4.11828 122.295 7.42818 120.028 10.7455L122.504 12.4385ZM127.218 2.98H135.602V-0.0200005H127.218V2.98ZM134.26 0.809179C132.448 4.43484 130.51 7.86708 128.449 11.1067L130.979 12.7173C133.099 9.38624 135.087 5.86382 136.944 2.15082L134.26 0.809179ZM128.446 11.111C126.43 14.3022 124.292 17.2572 122.032 19.9775L124.34 21.8945C126.688 19.0682 128.902 16.0071 130.982 12.713L128.446 11.111ZM121.9 21.7087L136.364 45.7727L138.936 44.2273L124.472 20.1632L121.9 21.7087ZM137.65 43.5H128.37V46.5H137.65V43.5ZM167.872 45L166.441 45.4517L166.772 46.5H167.872V45ZM165.184 36.488L166.614 36.0363L166.283 34.988H165.184V36.488ZM150.272 36.488V34.988H149.172L148.841 36.0363L150.272 36.488ZM147.584 45V46.5H148.683L149.014 45.4517L147.584 45ZM139.968 45L138.545 44.525L137.885 46.5H139.968V45ZM154.496 1.48V-0.0200005H153.415L153.073 1.00503L154.496 1.48ZM161.28 1.48L162.702 1.00315L162.359 -0.0200005H161.28V1.48ZM175.872 45V46.5H177.957L177.294 44.5231L175.872 45ZM154.432 23.176L155.862 23.6284L155.865 23.6193L155.867 23.6101L154.432 23.176ZM152.448 29.448L151.017 28.9956L150.4 30.948H152.448V29.448ZM162.944 29.448V30.948H164.991L164.374 28.9956L162.944 29.448ZM160.96 23.176L159.519 23.5947L159.524 23.6116L159.529 23.6284L160.96 23.176ZM157.76 12.168L159.2 11.7493L157.788 6.8914L156.324 11.7339L157.76 12.168ZM169.302 44.5483L166.614 36.0363L163.753 36.9397L166.441 45.4517L169.302 44.5483ZM165.184 34.988H150.272V37.988H165.184V34.988ZM148.841 36.0363L146.153 44.5483L149.014 45.4517L151.702 36.9397L148.841 36.0363ZM147.584 43.5H139.968V46.5H147.584V43.5ZM141.39 45.475L155.918 1.95497L153.073 1.00503L138.545 44.525L141.39 45.475ZM154.496 2.98H161.28V-0.0200005H154.496V2.98ZM159.857 1.95685L174.449 45.4769L177.294 44.5231L162.702 1.00315L159.857 1.95685ZM175.872 43.5H167.872V46.5H175.872V43.5ZM153.001 22.7236L151.017 28.9956L153.878 29.9004L155.862 23.6284L153.001 22.7236ZM152.448 30.948H162.944V27.948H152.448V30.948ZM164.374 28.9956L162.39 22.7236L159.529 23.6284L161.513 29.9004L164.374 28.9956ZM162.4 22.7573L159.2 11.7493L156.319 12.5867L159.519 23.5947L162.4 22.7573ZM156.324 11.7339L152.996 22.7419L155.867 23.6101L159.195 12.6021L156.324 11.7339ZM210.691 42.184L211.463 43.4702L212.191 43.0333V42.184H210.691ZM205.379 44.424L205.853 45.847L205.861 45.8446L205.868 45.8421L205.379 44.424ZM187.459 43.336L186.668 44.6105L186.678 44.6165L187.459 43.336ZM181.827 37L180.473 37.6449L180.473 37.6449L181.827 37ZM181.827 9.352L183.177 10.0054L183.181 9.9969L181.827 9.352ZM187.523 3.08L186.767 1.78429L186.758 1.78992L187.523 3.08ZM202.947 1.48L202.635 2.94716L202.65 2.95035L202.665 2.95323L202.947 1.48ZM209.539 3.656L210.954 4.15452L211.413 2.85009L210.15 2.28629L209.539 3.656ZM207.171 10.376L206.629 11.7745L208.071 12.334L208.586 10.8745L207.171 10.376ZM201.731 8.648L201.357 10.1007L201.381 10.1069L201.406 10.1123L201.731 8.648ZM190.019 10.952L191.193 11.8858L191.198 11.8794L191.203 11.8729L190.019 10.952ZM190.019 35.336L188.825 36.2443L188.831 36.2524L188.838 36.2605L190.019 35.336ZM203.715 37.32L204.119 38.7644L205.215 38.4577V37.32H203.715ZM203.715 27.784H205.215V26.284H203.715V27.784ZM196.675 27.784H195.175V29.284H196.675V27.784ZM196.675 21.064V19.564H195.175V21.064H196.675ZM210.691 21.064H212.191V19.564H210.691V21.064ZM209.919 40.8978C208.995 41.4525 207.349 42.1579 204.89 43.0059L205.868 45.8421C208.358 44.9834 210.254 44.1955 211.463 43.4702L209.919 40.8978ZM204.905 43.001C202.662 43.7486 199.97 44.14 196.803 44.14V47.14C200.206 47.14 203.232 46.7207 205.853 45.847L204.905 43.001ZM196.803 44.14C193.296 44.14 190.469 43.4151 188.24 42.0555L186.678 44.6165C189.484 46.3289 192.886 47.14 196.803 47.14V44.14ZM188.25 42.0615C186.025 40.6806 184.341 38.7897 183.181 36.3551L180.473 37.6449C181.873 40.5863 183.943 42.9194 186.668 44.6105L188.25 42.0615ZM183.181 36.3551C182.011 33.8985 181.407 31.0526 181.407 27.784H178.407C178.407 31.4274 179.083 34.7255 180.473 37.6449L183.181 36.3551ZM181.407 27.784V18.632H178.407V27.784H181.407ZM181.407 18.632C181.407 15.2712 182.014 12.4094 183.177 10.0053L180.477 8.69866C179.08 11.5852 178.407 14.9101 178.407 18.632H181.407ZM183.181 9.9969C184.336 7.57272 186.032 5.7088 188.288 4.37008L186.758 1.78992C183.98 3.43786 181.878 5.75528 180.473 8.7071L183.181 9.9969ZM188.279 4.37567C190.551 3.05014 193.472 2.34 197.123 2.34V-0.660004C193.094 -0.660004 189.615 0.123188 186.767 1.78433L188.279 4.37567ZM197.123 2.34C198.886 2.34 200.723 2.54034 202.635 2.94716L203.259 0.012841C201.161 -0.433681 199.114 -0.660004 197.123 -0.660004V2.34ZM202.665 2.95323C204.53 3.31044 206.616 3.99365 208.928 5.02571L210.15 2.28629C207.684 1.18501 205.374 0.417562 203.229 0.00676675L202.665 2.95323ZM208.124 3.15747L205.756 9.87747L208.586 10.8745L210.954 4.15452L208.124 3.15747ZM207.713 8.97746C205.579 8.14991 203.69 7.54674 202.056 7.18372L201.406 10.1123C202.844 10.4319 204.582 10.9808 206.629 11.7745L207.713 8.97746ZM202.105 7.19526C200.493 6.7809 198.874 6.572 197.251 6.572V9.572C198.614 9.572 199.982 9.7471 201.357 10.1007L202.105 7.19526ZM197.251 6.572C193.642 6.572 190.708 7.6228 188.835 10.0311L191.203 11.8729C192.317 10.4412 194.204 9.572 197.251 9.572V6.572ZM188.845 10.0182C187.077 12.241 186.279 15.1689 186.279 18.632H189.279C189.279 15.6097 189.974 13.4177 191.193 11.8858L188.845 10.0182ZM186.279 18.632V27.784H189.279V18.632H186.279ZM186.279 27.784C186.279 31.1021 187.089 33.962 188.825 36.2443L191.213 34.4277C189.963 32.7847 189.279 30.6099 189.279 27.784H186.279ZM188.838 36.2605C190.74 38.6906 193.634 39.78 197.187 39.78V36.78C194.255 36.78 192.37 35.9067 191.2 34.4115L188.838 36.2605ZM197.187 39.78C198.254 39.78 199.395 39.6873 200.607 39.5078L200.167 36.5402C199.075 36.702 198.083 36.78 197.187 36.78V39.78ZM200.607 39.5078C201.818 39.3284 202.989 39.0809 204.119 38.7644L203.311 35.8756C202.308 36.1564 201.26 36.3783 200.167 36.5402L200.607 39.5078ZM205.215 37.32V27.784H202.215V37.32H205.215ZM203.715 26.284H196.675V29.284H203.715V26.284ZM198.175 27.784V21.064H195.175V27.784H198.175ZM196.675 22.564H210.691V19.564H196.675V22.564ZM209.191 21.064V42.184H212.191V21.064H209.191ZM245.67 37.64H247.17V36.14H245.67V37.64ZM245.67 45V46.5H247.17V45H245.67ZM220.454 45H218.954V46.5H220.454V45ZM220.454 1.48V-0.0200005H218.954V1.48H220.454ZM245.03 1.48H246.53V-0.0200005H245.03V1.48ZM245.03 8.84V10.34H246.53V8.84H245.03ZM228.134 8.84V7.34H226.634V8.84H228.134ZM228.134 19.272H226.634V20.772H228.134V19.272ZM243.11 19.272H244.61V17.772H243.11V19.272ZM243.11 26.632V28.132H244.61V26.632H243.11ZM228.134 26.632V25.132H226.634V26.632H228.134ZM228.134 37.64H226.634V39.14H228.134V37.64ZM244.17 37.64V45H247.17V37.64H244.17ZM245.67 43.5H220.454V46.5H245.67V43.5ZM221.954 45V1.48H218.954V45H221.954ZM220.454 2.98H245.03V-0.0200005H220.454V2.98ZM243.53 1.48V8.84H246.53V1.48H243.53ZM245.03 7.34H228.134V10.34H245.03V7.34ZM226.634 8.84V19.272H229.634V8.84H226.634ZM228.134 20.772H243.11V17.772H228.134V20.772ZM241.61 19.272V26.632H244.61V19.272H241.61ZM243.11 25.132H228.134V28.132H243.11V25.132ZM226.634 26.632V37.64H229.634V26.632H226.634ZM228.134 39.14H245.67V36.14H228.134V39.14ZM292.667 37.64H294.167V36.14H292.667V37.64ZM292.667 45V46.5H294.167V45H292.667ZM267.579 45H266.079V46.5H267.579V45ZM267.579 1.48V-0.0200005H266.079V1.48H267.579ZM275.259 1.48H276.759V-0.0200005H275.259V1.48ZM275.259 37.64H273.759V39.14H275.259V37.64ZM291.167 37.64V45H294.167V37.64H291.167ZM292.667 43.5H267.579V46.5H292.667V43.5ZM269.079 45V1.48H266.079V45H269.079ZM267.579 2.98H275.259V-0.0200005H267.579V2.98ZM273.759 1.48V37.64H276.759V1.48H273.759ZM275.259 39.14H292.667V36.14H275.259V39.14ZM307.696 45V46.5H309.196V45H307.696ZM300.016 45H298.516V46.5H300.016V45ZM300.016 1.48V-0.0200005H298.516V1.48H300.016ZM307.696 1.48H309.196V-0.0200005H307.696V1.48ZM307.696 43.5H300.016V46.5H307.696V43.5ZM301.516 45V1.48H298.516V45H301.516ZM300.016 2.98H307.696V-0.0200005H300.016V2.98ZM306.196 1.48V45H309.196V1.48H306.196ZM335.448 29.512L334.305 30.4835L334.318 30.4997L334.333 30.5154L335.448 29.512ZM331.352 27.272L330.882 28.6968L330.895 28.701L331.352 27.272ZM326.104 25.544L326.573 24.1192L326.569 24.1181L326.104 25.544ZM320.024 4.36L318.943 3.31916L318.943 3.31953L320.024 4.36ZM336.536 1.544L336.187 3.00287L336.202 3.00647L336.217 3.00976L336.536 1.544ZM342.808 3.656L344.219 4.16311L344.691 2.84901L343.414 2.2842L342.808 3.656ZM340.44 10.248L339.887 11.6427L341.328 12.2128L341.851 10.7551L340.44 10.248ZM335.192 8.52L334.797 9.96714L334.822 9.97408L334.848 9.98012L335.192 8.52ZM326.168 9.032L326.954 10.3095L326.96 10.3054L326.967 10.3013L326.168 9.032ZM325.656 16.2L324.517 17.1762L324.542 17.2053L324.568 17.2331L325.656 16.2ZM329.624 18.376L330.093 16.9512L330.088 16.9497L329.624 18.376ZM334.872 20.104L335.352 18.6829L335.341 18.6792L334.872 20.104ZM341.976 24.776L340.787 25.6918L340.798 25.7055L340.809 25.7191L341.976 24.776ZM340.76 42.12L341.801 43.1995L341.811 43.19L340.76 42.12ZM322.904 44.936L322.56 46.3961L322.576 46.4L322.593 46.4035L322.904 44.936ZM315.736 42.376L314.324 41.8689L313.858 43.1648L315.11 43.7392L315.736 42.376ZM318.104 35.784L318.694 34.4053L317.23 33.7778L316.692 35.2769L318.104 35.784ZM324.184 37.96L323.811 39.413L323.833 39.4185L323.854 39.4234L324.184 37.96ZM329.176 40.036C331.792 40.036 334.026 39.5589 335.637 38.365C337.331 37.1088 338.1 35.2392 338.1 33.032H335.1C335.1 34.4941 334.63 35.3766 333.85 35.955C332.986 36.5958 331.509 37.036 329.176 37.036V40.036ZM338.1 33.032C338.1 31.2824 337.645 29.7119 336.562 28.5086L334.333 30.5154C334.786 31.0188 335.1 31.7949 335.1 33.032H338.1ZM336.59 28.5405C335.584 27.3565 333.881 26.5048 331.808 25.843L330.895 28.701C332.832 29.3192 333.86 29.9608 334.305 30.4835L336.59 28.5405ZM331.821 25.8472L326.573 24.1192L325.634 26.9688L330.882 28.6968L331.821 25.8472ZM326.569 24.1181C323.643 23.1626 321.579 21.7687 320.241 20.0111C318.908 18.2618 318.196 16.0231 318.196 13.192H315.196C315.196 16.5475 316.051 19.4608 317.854 21.8289C319.652 24.1887 322.292 25.8773 325.638 26.9699L326.569 24.1181ZM318.196 13.192C318.196 9.94523 319.188 7.39039 321.104 5.40046L318.943 3.31953C316.422 5.93761 315.196 9.27077 315.196 13.192H318.196ZM321.104 5.40084C322.973 3.46112 326.022 2.34 330.583 2.34V-0.660004C325.588 -0.660004 321.597 0.565543 318.943 3.31916L321.104 5.40084ZM330.583 2.34C332.471 2.34 334.338 2.56068 336.187 3.00287L336.884 0.0851306C334.808 -0.411357 332.707 -0.660004 330.583 -0.660004V2.34ZM336.217 3.00976C338.063 3.41103 340.056 4.0793 342.201 5.0278L343.414 2.2842C341.121 1.27003 338.934 0.530304 336.854 0.0782341L336.217 3.00976ZM341.396 3.14889L339.028 9.74089L341.851 10.7551L344.219 4.16311L341.396 3.14889ZM340.992 8.85329C338.905 8.02717 337.082 7.42376 335.535 7.05987L334.848 9.98012C336.203 10.2989 337.878 10.8475 339.887 11.6427L340.992 8.85329ZM335.586 7.07285C334.047 6.65296 332.463 6.444 330.84 6.444V9.444C332.203 9.444 333.52 9.61903 334.797 9.96714L335.586 7.07285ZM330.84 6.444C328.712 6.444 326.843 6.83402 325.368 7.76265L326.967 10.3013C327.796 9.77931 329.041 9.444 330.84 9.444V6.444ZM325.381 7.75451C323.66 8.81389 323.004 10.6869 323.004 12.808H326.004C326.004 11.2598 326.456 10.6154 326.954 10.3095L325.381 7.75451ZM323.004 12.808C323.004 14.4719 323.48 15.9663 324.517 17.1762L326.794 15.2238C326.295 14.6417 326.004 13.8747 326.004 12.808H323.004ZM324.568 17.2331C325.627 18.3478 327.222 19.1716 329.159 19.8023L330.088 16.9497C328.356 16.3857 327.305 15.7588 326.743 15.1669L324.568 17.2331ZM329.154 19.8008L334.402 21.5288L335.341 18.6792L330.093 16.9512L329.154 19.8008ZM334.391 21.5251C337.348 22.5241 339.435 23.9377 340.787 25.6918L343.164 23.8602C341.358 21.5183 338.709 19.8172 335.352 18.6829L334.391 21.5251ZM340.809 25.7191C342.159 27.3882 342.908 29.6902 342.908 32.776H345.908C345.908 29.2058 345.035 26.1744 343.142 23.8329L340.809 25.7191ZM342.908 32.776C342.908 36.2692 341.816 38.9794 339.708 41.05L341.811 43.19C344.567 40.4819 345.908 36.9628 345.908 32.776H342.908ZM339.718 41.0406C337.684 43.0029 334.324 44.14 329.304 44.14V47.14C334.693 47.14 338.971 45.9304 341.801 43.1994L339.718 41.0406ZM329.304 44.14C327.37 44.14 325.341 43.9185 323.214 43.4685L322.593 46.4035C324.903 46.8922 327.141 47.14 329.304 47.14V44.14ZM323.247 43.4759C321.191 42.992 318.897 42.1768 316.361 41.0128L315.11 43.7392C317.779 44.9645 320.264 45.856 322.56 46.3961L323.247 43.4759ZM317.147 42.8831L319.515 36.2911L316.692 35.2769L314.324 41.8689L317.147 42.8831ZM317.513 37.1627C319.941 38.2033 322.045 38.9602 323.811 39.413L324.556 36.507C322.994 36.1065 321.045 35.4127 318.694 34.4053L317.513 37.1627ZM323.854 39.4234C325.661 39.8298 327.435 40.036 329.176 40.036V37.036C327.673 37.036 326.12 36.8582 324.513 36.4966L323.854 39.4234ZM347.645 8.84H346.145V10.34H347.645V8.84ZM347.645 1.48V-0.0200005H346.145V1.48H347.645ZM379.645 1.48H381.145V-0.0200005H379.645V1.48ZM379.645 8.84V10.34H381.145V8.84H379.645ZM367.485 8.84V7.34H365.985V8.84H367.485ZM367.485 45V46.5H368.985V45H367.485ZM359.805 45H358.305V46.5H359.805V45ZM359.805 8.84H361.305V7.34H359.805V8.84ZM349.145 8.84V1.48H346.145V8.84H349.145ZM347.645 2.98H379.645V-0.0200005H347.645V2.98ZM378.145 1.48V8.84H381.145V1.48H378.145ZM379.645 7.34H367.485V10.34H379.645V7.34ZM365.985 8.84V45H368.985V8.84H365.985ZM367.485 43.5H359.805V46.5H367.485V43.5ZM361.305 45V8.84H358.305V45H361.305ZM359.805 7.34H347.645V10.34H359.805V7.34ZM402.26 29.512L401.117 30.4835L401.131 30.4997L401.145 30.5154L402.26 29.512ZM398.164 27.272L397.695 28.6968L397.708 28.701L398.164 27.272ZM392.916 25.544L393.385 24.1192L393.382 24.1181L392.916 25.544ZM386.836 4.36L385.756 3.31916L385.756 3.31953L386.836 4.36ZM403.348 1.544L402.999 3.00287L403.014 3.00647L403.029 3.00976L403.348 1.544ZM409.62 3.656L411.032 4.16311L411.504 2.84901L410.227 2.2842L409.62 3.656ZM407.252 10.248L406.7 11.6427L408.14 12.2128L408.664 10.7551L407.252 10.248ZM402.004 8.52L401.609 9.96714L401.635 9.97408L401.66 9.98012L402.004 8.52ZM392.98 9.032L393.766 10.3095L393.773 10.3054L393.779 10.3013L392.98 9.032ZM392.468 16.2L391.329 17.1762L391.354 17.2053L391.381 17.2331L392.468 16.2ZM396.436 18.376L396.905 16.9512L396.9 16.9497L396.436 18.376ZM401.684 20.104L402.164 18.6829L402.153 18.6792L401.684 20.104ZM408.788 24.776L407.6 25.6918L407.611 25.7055L407.622 25.7191L408.788 24.776ZM407.572 42.12L408.614 43.1995L408.623 43.19L407.572 42.12ZM389.716 44.936L389.372 46.3961L389.389 46.4L389.406 46.4035L389.716 44.936ZM382.548 42.376L381.136 41.8689L380.671 43.1648L381.922 43.7392L382.548 42.376ZM384.916 35.784L385.507 34.4053L384.043 33.7778L383.504 35.2769L384.916 35.784ZM390.996 37.96L390.623 39.413L390.645 39.4185L390.667 39.4234L390.996 37.96ZM395.988 40.036C398.604 40.036 400.839 39.5589 402.449 38.365C404.144 37.1088 404.912 35.2392 404.912 33.032H401.912C401.912 34.4941 401.443 35.3766 400.663 35.955C399.798 36.5958 398.321 37.036 395.988 37.036V40.036ZM404.912 33.032C404.912 31.2824 404.458 29.7119 403.375 28.5086L401.145 30.5154C401.598 31.0188 401.912 31.7949 401.912 33.032H404.912ZM403.403 28.5405C402.396 27.3565 400.694 26.5048 398.62 25.843L397.708 28.701C399.645 29.3192 400.673 29.9608 401.117 30.4835L403.403 28.5405ZM398.633 25.8472L393.385 24.1192L392.447 26.9688L397.695 28.6968L398.633 25.8472ZM393.382 24.1181C390.456 23.1626 388.392 21.7687 387.053 20.0111C385.721 18.2618 385.008 16.0231 385.008 13.192H382.008C382.008 16.5475 382.863 19.4608 384.667 21.8289C386.464 24.1887 389.104 25.8773 392.45 26.9699L393.382 24.1181ZM385.008 13.192C385.008 9.94523 386 7.39039 387.916 5.40046L385.756 3.31953C383.234 5.93761 382.008 9.27077 382.008 13.192H385.008ZM387.916 5.40084C389.785 3.46112 392.834 2.34 397.396 2.34V-0.660004C392.4 -0.660004 388.409 0.565543 385.756 3.31916L387.916 5.40084ZM397.396 2.34C399.283 2.34 401.15 2.56068 402.999 3.00287L403.697 0.0851306C401.621 -0.411357 399.52 -0.660004 397.396 -0.660004V2.34ZM403.029 3.00976C404.875 3.41103 406.869 4.0793 409.013 5.0278L410.227 2.2842C407.934 1.27003 405.746 0.530304 403.667 0.0782341L403.029 3.00976ZM408.208 3.14889L405.84 9.74089L408.664 10.7551L411.032 4.16311L408.208 3.14889ZM407.804 8.85329C405.717 8.02717 403.894 7.42376 402.348 7.05987L401.66 9.98012C403.015 10.2989 404.691 10.8475 406.7 11.6427L407.804 8.85329ZM402.399 7.07285C400.859 6.65296 399.276 6.444 397.652 6.444V9.444C399.015 9.444 400.333 9.61903 401.609 9.96714L402.399 7.07285ZM397.652 6.444C395.525 6.444 393.656 6.83402 392.181 7.76265L393.779 10.3013C394.608 9.77931 395.854 9.444 397.652 9.444V6.444ZM392.194 7.75451C390.472 8.81389 389.816 10.6869 389.816 12.808H392.816C392.816 11.2598 393.269 10.6154 393.766 10.3095L392.194 7.75451ZM389.816 12.808C389.816 14.4719 390.292 15.9663 391.329 17.1762L393.607 15.2238C393.108 14.6417 392.816 13.8747 392.816 12.808H389.816ZM391.381 17.2331C392.439 18.3478 394.034 19.1716 395.972 19.8023L396.9 16.9497C395.168 16.3857 394.118 15.7588 393.555 15.1669L391.381 17.2331ZM395.967 19.8008L401.215 21.5288L402.153 18.6792L396.905 16.9512L395.967 19.8008ZM401.204 21.5251C404.161 22.5241 406.248 23.9377 407.6 25.6918L409.976 23.8602C408.171 21.5183 405.522 19.8172 402.164 18.6829L401.204 21.5251ZM407.622 25.7191C408.971 27.3882 409.72 29.6902 409.72 32.776H412.72C412.72 29.2058 411.848 26.1744 409.954 23.8329L407.622 25.7191ZM409.72 32.776C409.72 36.2692 408.628 38.9794 406.521 41.05L408.623 43.19C411.38 40.4819 412.72 36.9628 412.72 32.776H409.72ZM406.53 41.0406C404.497 43.0029 401.137 44.14 396.116 44.14V47.14C401.506 47.14 405.783 45.9304 408.614 43.1994L406.53 41.0406ZM396.116 44.14C394.183 44.14 392.154 43.9185 390.026 43.4685L389.406 46.4035C391.716 46.8922 393.953 47.14 396.116 47.14V44.14ZM390.06 43.4759C388.003 42.992 385.71 42.1768 383.174 41.0128L381.922 43.7392C384.592 44.9645 387.077 45.856 389.372 46.3961L390.06 43.4759ZM383.96 42.8831L386.328 36.2911L383.504 35.2769L381.136 41.8689L383.96 42.8831ZM384.325 37.1627C386.753 38.2033 388.857 38.9602 390.623 39.413L391.369 36.507C389.807 36.1065 387.857 35.4127 385.507 34.4053L384.325 37.1627ZM390.667 39.4234C392.473 39.8298 394.248 40.036 395.988 40.036V37.036C394.486 37.036 392.932 36.8582 391.325 36.4966L390.667 39.4234Z" fill="white" mask="url(#path-1-outside-1_13_3)"/>
<defs>
<filter id="filter0_iii_13_3" x="-1.98399" y="-1.16" width="415.204" height="48.8" filterUnits="userSpaceOnUse" color-interpolation-filters="sRGB">
<feFlood flood-opacity="0" result="BackgroundImageFix"/>
<feBlend mode="normal" in="SourceGraphic" in2="BackgroundImageFix" result="shape"/>
<feColorMatrix in="SourceAlpha" type="matrix" values="0 0 0 0 0 0 0 0 0 0 0 0 0 0 0 0 0 0 127 0" result="hardAlpha"/>
<feOffset dx="2" dy="2"/>
<feGaussianBlur stdDeviation="1"/>
<feComposite in2="hardAlpha" operator="arithmetic" k2="-1" k3="1"/>
<feColorMatrix type="matrix" values="0 0 0 0 0 0 0 0 0 0 0 0 0 0 0 0 0 0 0.25 0"/>
<feBlend mode="normal" in2="shape" result="effect1_innerShadow_13_3"/>
<feColorMatrix in="SourceAlpha" type="matrix" values="0 0 0 0 0 0 0 0 0 0 0 0 0 0 0 0 0 0 127 0" result="hardAlpha"/>
<feOffset dx="-2" dy="-2"/>
<feGaussianBlur stdDeviation="1"/>
<feComposite in2="hardAlpha" operator="arithmetic" k2="-1" k3="1"/>
<feColorMatrix type="matrix" values="0 0 0 0 1 0 0 0 0 1 0 0 0 0 1 0 0 0 0.25 0"/>
<feBlend mode="normal" in2="effect1_innerShadow_13_3" result="effect2_innerShadow_13_3"/>
<feColorMatrix in="SourceAlpha" type="matrix" values="0 0 0 0 0 0 0 0 0 0 0 0 0 0 0 0 0 0 127 0" result="hardAlpha"/>
<feOffset/>
<feGaussianBlur stdDeviation="2.5"/>
<feComposite in2="hardAlpha" operator="arithmetic" k2="-1" k3="1"/>
<feColorMatrix type="matrix" values="0 0 0 0 0 0 0 0 0 0 0 0 0 0 0 0 0 0 0.5 0"/>
<feBlend mode="normal" in2="effect2_innerShadow_13_3" result="effect3_innerShadow_13_3"/>
</filter>
</defs>
</svg>
